<?xml version="1.0" standalone="no"?>
<svg xmlns:xlink="http://www.w3.org/1999/xlink" id="wave" style="transform:rotate(180deg); transition: 0.3s" viewBox="0 0 1440 100" version="1.1" xmlns="http://www.w3.org/2000/svg"><defs><linearGradient id="sw-gradient-0" x1="0" x2="0" y1="1" y2="0"><stop stop-color="rgba(255, 249, 234, 1)" offset="0%"/><stop stop-color="rgba(255, 249, 234, 1)" offset="100%"/></linearGradient></defs><path style="transform:translate(0, 0px); opacity:1" fill="url(#sw-gradient-0)" d="M0,60L48,51.7C96,43,192,27,288,21.7C384,17,480,23,576,26.7C672,30,768,30,864,31.7C960,33,1056,37,1152,36.7C1248,37,1344,33,1440,35C1536,37,1632,43,1728,48.3C1824,53,1920,57,2016,63.3C2112,70,2208,80,2304,83.3C2400,87,2496,83,2592,78.3C2688,73,2784,67,2880,58.3C2976,50,3072,40,3168,45C3264,50,3360,70,3456,65C3552,60,3648,30,3744,30C3840,30,3936,60,4032,70C4128,80,4224,70,4320,66.7C4416,63,4512,67,4608,71.7C4704,77,4800,83,4896,85C4992,87,5088,83,5184,68.3C5280,53,5376,27,5472,26.7C5568,27,5664,53,5760,63.3C5856,73,5952,67,6048,66.7C6144,67,6240,73,6336,65C6432,57,6528,33,6624,26.7C6720,20,6816,30,6864,35L6912,40L6912,100L6864,100C6816,100,6720,100,6624,100C6528,100,6432,100,6336,100C6240,100,6144,100,6048,100C5952,100,5856,100,5760,100C5664,100,5568,100,5472,100C5376,100,5280,100,5184,100C5088,100,4992,100,4896,100C4800,100,4704,100,4608,100C4512,100,4416,100,4320,100C4224,100,4128,100,4032,100C3936,100,3840,100,3744,100C3648,100,3552,100,3456,100C3360,100,3264,100,3168,100C3072,100,2976,100,2880,100C2784,100,2688,100,2592,100C2496,100,2400,100,2304,100C2208,100,2112,100,2016,100C1920,100,1824,100,1728,100C1632,100,1536,100,1440,100C1344,100,1248,100,1152,100C1056,100,960,100,864,100C768,100,672,100,576,100C480,100,384,100,288,100C192,100,96,100,48,100L0,100Z"/></svg>